
<svg id="visual" viewBox="0 0 900 600" width="900" height="600" xmlns="http://www.w3.org/2000/svg" xmlns:xlink="http://www.w3.org/1999/xlink" version="1.1"><path d="M138 0L123.8 4C109.7 8 81.3 16 66.2 24C51 32 49 40 63.5 48C78 56 109 64 119 72C129 80 118 88 116 96C114 104 121 112 113 120C105 128 82 136 77.2 144C72.3 152 85.7 160 96.8 168C108 176 117 184 113.2 192C109.3 200 92.7 208 78.8 216C65 224 54 232 62 240C70 248 97 256 105.3 264C113.7 272 103.3 280 97 288C90.7 296 88.3 304 96.2 312C104 320 122 328 130.8 336C139.7 344 139.3 352 137 360C134.7 368 130.3 376 115.2 384C100 392 74 400 63.3 408C52.7 416 57.3 424 58 432C58.7 440 55.3 448 65.7 456C76 464 100 472 115.2 480C130.3 488 136.7 496 134.5 504C132.3 512 121.7 520 112.8 528C104 536 97 544 97.3 552C97.7 560 105.3 568 99.3 576C93.3 584 73.7 592 63.8 596L54 600L0 600L0 596C0 592 0 584 0 576C0 568 0 560 0 552C0 544 0 536 0 528C0 520 0 512 0 504C0 496 0 488 0 480C0 472 0 464 0 456C0 448 0 440 0 432C0 424 0 416 0 408C0 400 0 392 0 384C0 376 0 368 0 360C0 352 0 344 0 336C0 328 0 320 0 312C0 304 0 296 0 288C0 280 0 272 0 264C0 256 0 248 0 240C0 232 0 224 0 216C0 208 0 200 0 192C0 184 0 176 0 168C0 160 0 152 0 144C0 136 0 128 0 120C0 112 0 104 0 96C0 88 0 80 0 72C0 64 0 56 0 48C0 40 0 32 0 24C0 16 0 8 0 4L0 0Z" fill="#ff5d5d" stroke-linecap="round" stroke-linejoin="miter"></path></svg>