
<svg id="visual" viewBox="0 0 900 600" width="900" height="600" xmlns="http://www.w3.org/2000/svg" xmlns:xlink="http://www.w3.org/1999/xlink" version="1.1"><path d="M0 522L21.5 505.2C43 488.3 86 454.7 128.8 443.7C171.7 432.7 214.3 444.3 257.2 451.7C300 459 343 462 385.8 471.7C428.7 481.3 471.3 497.7 514.2 489.5C557 481.3 600 448.7 642.8 441.7C685.7 434.7 728.3 453.3 771.2 457.8C814 462.3 857 452.7 878.5 447.8L900 443L900 601L878.5 601C857 601 814 601 771.2 601C728.3 601 685.7 601 642.8 601C600 601 557 601 514.2 601C471.3 601 428.7 601 385.8 601C343 601 300 601 257.2 601C214.3 601 171.7 601 128.8 601C86 601 43 601 21.5 601L0 601Z" fill="#ac3027" stroke-linecap="round" stroke-linejoin="miter"></path></svg>